<svg width="113" height="23" viewBox="0 0 113 23" fill="none" xmlns="http://www.w3.org/2000/svg">
<path d="M39.343 5.96401H44.035C44.4883 5.96401 44.936 6.02068 45.378 6.13401C45.82 6.23601 46.211 6.41168 46.551 6.66101C46.9023 6.89901 47.1857 7.21068 47.401 7.59601C47.6163 7.98134 47.724 8.44601 47.724 8.99001C47.724 9.67001 47.5313 10.231 47.146 10.673C46.7607 11.115 46.2563 11.4323 45.633 11.625V11.659C46.007 11.7043 46.3527 11.812 46.67 11.982C46.9987 12.1407 47.2763 12.3503 47.503 12.611C47.7297 12.8603 47.9053 13.155 48.03 13.495C48.166 13.8237 48.234 14.1807 48.234 14.566C48.234 15.2233 48.1037 15.773 47.843 16.215C47.5823 16.6457 47.2367 16.997 46.806 17.269C46.3867 17.5297 45.8993 17.7167 45.344 17.83C44.8 17.9433 44.2447 18 43.678 18H39.343V5.96401ZM41.485 10.86H43.44C44.154 10.86 44.6867 10.724 45.038 10.452C45.4007 10.1687 45.582 9.80034 45.582 9.34701C45.582 8.82568 45.395 8.44034 45.021 8.19101C44.6583 7.93034 44.069 7.80001 43.253 7.80001H41.485V10.86ZM41.485 16.164H43.457C43.729 16.164 44.018 16.147 44.324 16.113C44.6413 16.079 44.9303 15.9997 45.191 15.875C45.4517 15.7503 45.667 15.5747 45.837 15.348C46.007 15.11 46.092 14.7927 46.092 14.396C46.092 13.7613 45.8823 13.3193 45.463 13.07C45.055 12.8207 44.4147 12.696 43.542 12.696H41.485V16.164ZM50.1794 9.84001H52.2194V11.132H52.2534C52.4801 10.656 52.8031 10.2877 53.2224 10.027C53.6418 9.76634 54.1234 9.63601 54.6674 9.63601C54.7921 9.63601 54.9111 9.64734 55.0244 9.67001C55.1491 9.69268 55.2738 9.72101 55.3984 9.75501V11.727C55.2284 11.6817 55.0584 11.6477 54.8884 11.625C54.7298 11.591 54.5711 11.574 54.4124 11.574C53.9364 11.574 53.5511 11.6647 53.2564 11.846C52.9731 12.016 52.7521 12.2143 52.5934 12.441C52.4461 12.6677 52.3441 12.8943 52.2874 13.121C52.2421 13.3477 52.2194 13.5177 52.2194 13.631V18H50.1794V9.84001ZM61.8869 16.878H61.8359C61.5412 17.3427 61.1672 17.6827 60.7139 17.898C60.2605 18.102 59.7619 18.204 59.2179 18.204C58.8439 18.204 58.4755 18.153 58.1129 18.051C57.7615 17.949 57.4442 17.796 57.1609 17.592C56.8889 17.388 56.6679 17.133 56.4979 16.827C56.3279 16.521 56.2429 16.164 56.2429 15.756C56.2429 15.314 56.3222 14.94 56.4809 14.634C56.6395 14.3167 56.8492 14.056 57.1099 13.852C57.3819 13.6367 57.6935 13.4667 58.0449 13.342C58.3962 13.2173 58.7589 13.1267 59.1329 13.07C59.5182 13.002 59.9035 12.9623 60.2889 12.951C60.6742 12.9283 61.0369 12.917 61.3769 12.917H61.8869V12.696C61.8869 12.186 61.7112 11.8063 61.3599 11.557C61.0085 11.2963 60.5609 11.166 60.0169 11.166C59.5862 11.166 59.1839 11.2453 58.8099 11.404C58.4359 11.5513 58.1129 11.7553 57.8409 12.016L56.7699 10.945C57.2232 10.4803 57.7502 10.146 58.3509 9.94201C58.9629 9.73801 59.5919 9.63601 60.2379 9.63601C60.8159 9.63601 61.3032 9.70401 61.6999 9.84001C62.0965 9.96468 62.4252 10.129 62.6859 10.333C62.9465 10.537 63.1449 10.775 63.2809 11.047C63.4282 11.3077 63.5302 11.574 63.5869 11.846C63.6549 12.118 63.6945 12.3843 63.7059 12.645C63.7172 12.8943 63.7229 13.1153 63.7229 13.308V18H61.8869V16.878ZM61.7679 14.345H61.3429C61.0595 14.345 60.7422 14.3563 60.3909 14.379C60.0395 14.4017 59.7052 14.4583 59.3879 14.549C59.0819 14.6283 58.8212 14.753 58.6059 14.923C58.3905 15.0817 58.2829 15.3083 58.2829 15.603C58.2829 15.7957 58.3225 15.96 58.4019 16.096C58.4925 16.2207 58.6059 16.3283 58.7419 16.419C58.8779 16.5097 59.0309 16.5777 59.2009 16.623C59.3709 16.657 59.5409 16.674 59.7109 16.674C60.4135 16.674 60.9292 16.5097 61.2579 16.181C61.5979 15.841 61.7679 15.382 61.7679 14.804V14.345ZM65.9517 9.84001H67.9917V18H65.9517V9.84001ZM65.6627 7.06901C65.6627 6.74034 65.7817 6.45701 66.0197 6.21901C66.2691 5.96968 66.5807 5.84501 66.9547 5.84501C67.3287 5.84501 67.6404 5.96401 67.8897 6.20201C68.1504 6.42868 68.2807 6.71768 68.2807 7.06901C68.2807 7.42034 68.1504 7.71501 67.8897 7.95301C67.6404 8.17968 67.3287 8.29301 66.9547 8.29301C66.5807 8.29301 66.2691 8.17401 66.0197 7.93601C65.7817 7.68668 65.6627 7.39768 65.6627 7.06901ZM70.3337 9.84001H72.2717V11.149H72.3057C72.4984 10.741 72.7931 10.3897 73.1897 10.095C73.5864 9.78901 74.1247 9.63601 74.8047 9.63601C75.3487 9.63601 75.8077 9.72668 76.1817 9.90801C76.5671 10.0893 76.8787 10.3273 77.1167 10.622C77.3547 10.9167 77.5247 11.2567 77.6267 11.642C77.7287 12.0273 77.7797 12.4297 77.7797 12.849V18H75.7397V13.869C75.7397 13.6423 75.7284 13.393 75.7057 13.121C75.6831 12.8377 75.6207 12.577 75.5187 12.339C75.4281 12.0897 75.2807 11.8857 75.0767 11.727C74.8727 11.557 74.5951 11.472 74.2437 11.472C73.9037 11.472 73.6147 11.5287 73.3767 11.642C73.1501 11.7553 72.9574 11.9083 72.7987 12.101C72.6514 12.2937 72.5437 12.5147 72.4757 12.764C72.4077 13.0133 72.3737 13.274 72.3737 13.546V18H70.3337V9.84001ZM80.2825 5.96401H88.0515V7.90201H82.4245V11.064H87.7285V13.002H82.4245V18H80.2825V5.96401ZM89.8912 5.14801H91.9312V18H89.8912V5.14801ZM94.3238 9.84001H96.3638V18H94.3238V9.84001ZM94.0348 7.06901C94.0348 6.74034 94.1538 6.45701 94.3918 6.21901C94.6411 5.96968 94.9528 5.84501 95.3268 5.84501C95.7008 5.84501 96.0125 5.96401 96.2618 6.20201C96.5225 6.42868 96.6528 6.71768 96.6528 7.06901C96.6528 7.42034 96.5225 7.71501 96.2618 7.95301C96.0125 8.17968 95.7008 8.29301 95.3268 8.29301C94.9528 8.29301 94.6411 8.17401 94.3918 7.93601C94.1538 7.68668 94.0348 7.39768 94.0348 7.06901ZM100.814 13.614L97.9918 9.84001H100.474L102.106 12.288L103.874 9.84001H106.203L103.415 13.614L106.696 18H104.214L102.089 15.076L99.9468 18H97.5328L100.814 13.614Z" fill="black"/>
<path d="M4.19672 0C0.839344 0 0 5.11111 0 7.66667V15.3333C0 17.8889 0.839344 23 4.19672 23H27.8033C31.1607 23 32 17.8889 32 15.3333V7.66667C32 5.11111 31.1607 0 27.8033 0H4.19672Z" fill="#0095FF"/>
<path d="M22.5 11.5L12 16.6962V6.30386L22.5 11.5Z" fill="white"/>
</svg>
